PathFileType	4	(X/Y/Z)	0_coords_data.trc
DataRate	CameraRate	NumFrames	NumMarkers	Units	OrigDataRate	OrigDataStartFrame	OrigNumFrames
30.0	30.0	5	21	m	30.0	11	71
Frame#	Time	THUMB_TIP	THUMB_IP	THUMB_MCP	THUMB_CMC	INDEX_TIP	INDEX_DIP	INDEX_PIP	INDEX_MCP	MIDDLE_TIP	MIDDLE_DIP	MIDDLE_PIP	MIDDLE_MCP	RING_TIP	RING_DIP	RING_PIP	RING_MCP	PINKY_TIP	PINKY_DIP	PINKY_PIP	PINKY_MCP	WRIST
X1	Y1	Z1	X2	Y2	Z2	X3	Y3	Z3	X4	Y4	Z4	X5	Y5	Z5	X6	Y6	Z6	X7	Y7	Z7	X8	Y8	Z8	X9	Y9	Z9	X10	Y10	Z10	X11	Y11	Z11	X12	Y12	Z12	X13	Y13	Z13	X14	Y14	Z14	X15	Y15	Z15	X16	Y16	Z16	X17	Y17	Z17	X18	Y18	Z18	X19	Y19	Z19	X20	Y20	Z20	X21	Y21	Z21
10	0.3333333333333333	-0.011763999938964844	-0.13469500732421874	0.9828779907226562	0.000121307998895645	-0.10882900238037109	0.9856959838867188	-0.009235050201416016	-0.08433360290527343	1.0028499755859375	-0.011364399909973144	-0.0465010986328125	1.0181300048828126	0.006462500095367431	-0.0943781967163086	0.8751580200195312	0.006541069984436035	-0.08541809844970703	0.8979249877929687	0.0046720499992370604	-0.07566750335693359	0.9206099853515625	-0.006313739776611328	-0.05822890090942383	0.95531298828125	0.005080349922180176	-0.03266080093383789	0.851802978515625	0.0077354001998901365	-0.033748401641845706	0.879427001953125	0.006451600074768067	-0.033935798645019534	0.909406005859375	-0.005816400051116943	-0.03211539840698242	0.94927001953125	0.007892899990081787	0.024044099807739257	0.8636220092773438	0.0095145902633667	0.015044899940490722	0.888614013671875	0.007747590065002441	0.004964710235595703	0.9152490234375	0.0012833199501037591	-0.008234539985656738	0.9514730224609375	0.03266080093383789	0.06607039642333984	0.917906982421875	0.024382999420166016	0.05060749816894531	0.931051025390625	0.015343700408935547	0.03601229858398437	0.942822021484375	0.0013811800479888912	0.013357600212097169	0.9608330078125	-0.036564998626708985	-0.014105799674987794	1.0390899658203125
11	0.36666666666666664	-0.011567500114440918	-0.1343800048828125	0.9824219970703125	0.000146699994802474	-0.10841600036621094	0.9852869873046874	-0.009368189811706543	-0.08400779724121094	1.0023699951171876	-0.011746800422668457	-0.046353099822998046	1.0179099731445314	0.007042490005493164	-0.09356269836425782	0.8748900146484375	0.00704833984375	-0.08475430297851562	0.89768701171875	0.004944029808044433	-0.07503849792480469	0.9204390258789062	-0.00625993013381958	-0.05761190032958984	0.9551270141601562	0.005375840187072754	-0.0313528995513916	0.8518140258789062	0.008164329528808594	-0.032616500854492185	0.8794619750976562	0.006805399894714356	-0.033092498779296875	0.9093400268554688	-0.005575630187988281	-0.0315132999420166	0.949072998046875	0.008222089767456055	0.02514240074157715	0.8640659790039062	0.009747949600219727	0.016058700561523438	0.8889660034179687	0.008049860000610351	0.005843770027160644	0.9154869995117187	0.001317929983139038	-0.007624670028686524	0.9515289916992188	0.03262369918823242	0.06698789978027343	0.9187410278320313	0.024343000411987305	0.05136640167236328	0.9318250122070313	0.015305700302124024	0.036683200836181644	0.9434099731445312	0.0014883500337600699	0.01376830005645752	0.9611329956054687	-0.0371859016418457	-0.013934499740600586	1.03897998046875
12	0.4	-0.010953499794006347	-0.13413800048828126	0.9824609985351562	0.000727174997329711	-0.10805000305175781	0.985489990234375	-0.009048259735107422	-0.08376959991455078	1.0024299926757811	-0.011648699760437012	-0.04617279815673828	1.0179199829101562	0.008121600151062012	-0.09312889862060547	0.8750250244140625	0.007990859985351562	-0.08435150146484376	0.8978389892578125	0.005834660053253174	-0.07468309783935546	0.9206270141601562	-0.00570173978805542	-0.057202098846435546	0.9551119995117188	0.0065120701789855955	-0.03052549934387207	0.8520490112304687	0.009076319694519042	-0.03192589950561524	0.8794949951171875	0.007541359901428223	-0.03247299957275391	0.9095349731445312	-0.005263840198516846	-0.031171499252319337	0.9492890014648437	0.009232600212097168	0.025846500396728516	0.864489013671875	0.010626999855041504	0.016627199172973634	0.88927197265625	0.008754599571228027	0.006344659805297852	0.9158159790039062	0.001798030018806457	-0.007241710186004639	0.9517999877929687	0.03337670135498047	0.06749459838867188	0.9196370239257813	0.024994199752807617	0.051868698120117185	0.9325880126953126	0.01584119987487793	0.03706809997558594	0.9439979858398437	0.001749089956283569	0.01412279987335205	0.9615469970703125	-0.03746239852905273	-0.013805299758911134	1.0393199462890625
13	0.43333333333333335	-0.01113700008392334	-0.13423399353027343	0.982968017578125	0.000499918013811111	-0.10821099853515626	0.9858839721679687	-0.009066479682922363	-0.08377110290527344	1.0027000122070313	-0.011534199714660645	-0.04603229904174805	1.018030029296875	0.007385469913482666	-0.09372229766845704	0.8752639770507813	0.007381959915161133	-0.08483699798583984	0.898030029296875	0.005219379901885987	-0.07500180053710938	0.9207670288085937	-0.0062536802291870116	-0.05744609832763672	0.9554559936523438	0.006367899894714355	-0.031806400299072266	0.8521439819335938	0.008864839553833008	-0.03294839859008789	0.8796240234375	0.0072499098777771	-0.033166698455810543	0.9097059936523437	-0.005568059921264648	-0.0314286994934082	0.9493610229492188	0.00948589038848877	0.024661100387573243	0.8640609741210937	0.010800600051879883	0.015666000366210936	0.8889920043945313	0.008706480026245118	0.005622310161590576	0.9155869750976563	0.001611050009727478	-0.0075045499801635746	0.951822998046875	0.03366830062866211	0.06664080047607422	0.9187369995117187	0.025236200332641602	0.05119929885864258	0.9318590087890625	0.016050399780273436	0.0366338996887207	0.9434039916992187	0.0018577799797058101	0.013893400192260742	0.9612990112304688	-0.037112499237060545	-0.013616600036621095	1.0396199951171874
14	0.4666666666666667	-0.011742199897766113	-0.13442300415039063	0.9829669799804688	1.9585700705647002e-05	-0.10847200012207031	0.9856749877929688	-0.009505359649658204	-0.08391819763183593	1.0025800170898438	-0.01183549976348877	-0.04615879821777344	1.0178800048828125	0.006121819972991944	-0.09375640106201172	0.87497900390625	0.006271749973297119	-0.08490570068359375	0.8977169799804687	0.004402729988098143	-0.0751095962524414	0.9205499877929687	-0.006661119937896728	-0.05765790176391602	0.9551710205078126	0.005356939792633056	-0.03188010025024414	0.8519119873046875	0.008024120330810547	-0.03306209945678711	0.8794810180664062	0.006617929935455322	-0.03334989929199219	0.9094559936523438	-0.0059794697761535644	-0.031558799743652347	0.9491640014648437	0.008770359992980956	0.024329700469970704	0.8638250122070312	0.01007229995727539	0.015428199768066406	0.8887069702148438	0.00817947006225586	0.005492010116577148	0.9152659912109375	0.001201429963111877	-0.007719220161437989	0.95156298828125	0.03306890106201172	0.06638700103759766	0.9182260131835938	0.024666500091552735	0.05091619873046875	0.9313300170898438	0.01550850009918213	0.0363942985534668	0.9430020141601563	0.001357689976692199	0.013683500289916993	0.9610469970703125	-0.03741320037841797	-0.013687000274658204	1.03927001953125
